<?xml version="1.0" encoding="utf-8"?>
<!-- Generator: Adobe Illustrator 25.1.0, SVG Export Plug-In . SVG Version: 6.00 Build 0)  -->
<svg version="1.1" xmlns="http://www.w3.org/2000/svg" xmlns:xlink="http://www.w3.org/1999/xlink" x="0px" y="0px"
	 viewBox="0 0 300 300" style="enable-background:new 0 0 300 300;" xml:space="preserve">
<style type="text/css">
	.st0{display:none;}
	.st1{fill:#1B75BC;}
	.st2{fill:none;stroke:#1B75BC;stroke-width:11;stroke-miterlimit:10;}
	.st3{fill:none;stroke:#87C040;stroke-width:11;stroke-miterlimit:10;}
</style>
<g id="Layer_1" xmlns:cc="http://creativecommons.org/ns#" xmlns:dc="http://purl.org/dc/elements/1.1/" xmlns:inkscape="http://www.inkscape.org/namespaces/inkscape" xmlns:rdf="http://www.w3.org/1999/02/22-rdf-syntax-ns#" xmlns:sodipodi="http://sodipodi.sourceforge.net/DTD/sodipodi-0.dtd" xmlns:svg="http://www.w3.org/2000/svg">
	<path d="M33,42c-11.5,0-21,9.5-21,21v156c0,11.5,9.5,21,21,21h169.6c8.8,10.9,22.3,18,37.4,18c26.5,0,48-21.5,48-48
		c0-15.1-7.1-28.6-18-37.4V105c0-11.5-9.5-21-21-21H144.2L128,59.6c-2.3-3.4-4.8-7.4-8.3-11c-3.5-3.5-8.5-6.7-14.6-6.7H33z M33,54
		h72c2.2,0,4,0.9,6.2,3.1s4.5,5.7,6.8,9.2l18,27c1.1,1.7,3,2.7,5,2.7h108c5.1,0,9,3.9,9,9v60.5c-5.6-2.3-11.6-3.5-18-3.5
		c-26.5,0-48,21.5-48,48c0,6.4,1.2,12.4,3.5,18H33c-5.1,0-9-3.9-9-9V63C24,57.9,27.9,54,33,54L33,54z M240,171c21.6,0,39,17.4,39,39
		s-17.4,39-39,39s-39-17.4-39-39S218.4,171,240,171z M240,178.2c-2.9,0-5.2,2.3-5.2,5.2v34c0,2.9,2.3,5.2,5.2,5.2s5.2-2.3,5.2-5.2
		v-34C245.2,180.6,242.9,178.2,240,178.2z M240,228.2c-3.5,0-6.3,2.8-6.3,6.3s2.8,6.3,6.3,6.3s6.3-2.8,6.3-6.3
		S243.5,228.2,240,228.2z"/>
	<path class="st0" d="M75,329.4c-11.5,0-21,9.5-21,21v156c0,11.5,9.5,21,21,21h169.6c8.8,10.9,22.3,18,37.4,18c26.5,0,48-21.5,48-48
		c0-15.1-7.1-28.6-18-37.4v-67.6c0-11.5-9.5-21-21-21H186.2L170,347c-2.3-3.4-4.8-7.4-8.3-11c-3.5-3.5-8.5-6.7-14.6-6.7H75z
		 M75,341.4h72c2.2,0,4,0.9,6.2,3.1c2.2,2.2,4.5,5.7,6.8,9.2l18,27c1.1,1.7,3,2.7,5,2.7h108c5.1,0,9,3.9,9,9v60.5
		c-5.6-2.3-11.6-3.5-18-3.5c-26.5,0-48,21.5-48,48c0,6.4,1.2,12.4,3.5,18H75c-5.1,0-9-3.9-9-9v-156C66,345.3,69.9,341.4,75,341.4
		L75,341.4z M282,458.4c21.6,0,39,17.4,39,39s-17.4,39-39,39s-39-17.4-39-39S260.4,458.4,282,458.4z M282,461.4c-3.3,0-6,2.7-6,6v39
		c0,3.3,2.7,6,6,6c3.3,0,6-2.7,6-6v-39C288,464.1,285.3,461.4,282,461.4z M282,518.4c-4.1,0-7.5,3.4-7.5,7.5s3.4,7.5,7.5,7.5
		s7.5-3.4,7.5-7.5S286.1,518.4,282,518.4z"/>
	<path class="st1" d="M240.5,225.7L240.5,225.7c-3.2,0-5.8-2.6-5.8-5.8V184c0-3.2,2.6-5.8,5.8-5.8h0c3.2,0,5.8,2.6,5.8,5.8v35.9
		C246.3,223.1,243.7,225.7,240.5,225.7z"/>
</g>
<g id="Layer_2">
	<circle class="st2" cx="240" cy="210.1" r="43.9"/>
	<path class="st3" d="M190.1,365"/>
</g>
<g id="Layer_3">
	<circle class="st1" cx="240" cy="234.5" r="6.3"/>
</g>
</svg>
